<svg width="34" height="34" viewBox="0 0 34 34" fill="none" xmlns="http://www.w3.org/2000/svg">
<rect x="0.270752" y="1.76361" width="32" height="32" rx="12" transform="rotate(-2.67304 0.270752 1.76361)" fill="#0148B4"/>
<path d="M16.2734 12.1536C18.1279 12.067 19.9408 12.7207 21.3133 13.9708C22.6859 15.2209 23.5056 16.965 23.5922 18.8195C23.6788 20.674 23.0251 22.487 21.775 23.8595C20.5249 25.2321 18.7808 26.0518 16.9263 26.1384C15.0718 26.225 13.2588 25.5713 11.8863 24.3212C10.5137 23.0711 9.69402 21.3269 9.60743 19.4724C9.52085 17.618 10.1745 15.805 11.4246 14.4325C12.6747 13.0599 14.4189 12.2402 16.2734 12.1536V12.1536ZM16.4162 15.2128L15.3692 17.6092L12.8022 18.1057L14.7577 19.8408L14.4365 22.4363L16.6916 21.1126L19.0602 22.2196L18.4986 19.6661L20.284 17.7555L17.6819 17.5004L16.4162 15.2128ZM16.9433 7.74169L21.3136 7.53853L21.436 10.1607L20.2911 11.211C19.2783 10.7384 18.1839 10.4656 17.0678 10.4075L16.9434 7.74256L16.9433 7.74169ZM15.1952 7.8233L15.3197 10.4891C14.2142 10.6508 13.1503 11.0241 12.1861 11.5885L10.9475 10.6504L10.825 8.02821L15.1952 7.8233V7.8233Z" fill="white"/>
</svg>
