<svg width="34" height="34" viewBox="0 0 34 34" fill="none" xmlns="http://www.w3.org/2000/svg">
<rect opacity="0.1" x="0.686279" y="1.31958" width="32" height="32" rx="12" transform="rotate(-1.13235 0.686279 1.31958)" fill="white"/>
<path d="M17.9415 20.3571L17.9662 21.6068L20.4657 21.5574L20.4904 22.8072L14.2417 22.9307L14.217 21.6809L16.7165 21.6315L16.6918 20.3818L11.6877 20.4807C11.6057 20.4818 11.5242 20.4667 11.448 20.4363C11.3717 20.4059 11.3023 20.3607 11.2435 20.3034C11.1848 20.2461 11.1379 20.1777 11.1057 20.1023C11.0734 20.0268 11.0563 19.9457 11.0554 19.8637L10.895 11.749C10.8882 11.4016 11.1669 11.1141 11.5025 11.1075L22.7603 10.885C23.1027 10.8782 23.3857 11.1533 23.3926 11.502L23.553 19.6166C23.5599 19.9641 23.2811 20.2515 22.9455 20.2581L17.9415 20.3571V20.3571Z" fill="#808191"/>
</svg>
