<svg width="150" height="39" viewBox="0 0 150 39" fill="none" xmlns="http://www.w3.org/2000/svg">
<g clip-path="url(#clip0)">
<path d="M136.959 7.21706L132.33 13.3856V7.21706H122.345L122.279 7.32475H117.235V2.88867H107.161L102.889 10.1322C102.563 9.86207 102.226 9.59946 101.875 9.36141C100.875 8.68693 99.774 8.15793 98.6007 7.78573C97.4067 7.40787 96.1446 7.21706 94.8467 7.21706C93.0953 7.21706 91.4233 7.55713 89.8778 8.22594C88.9993 8.60569 88.1812 9.07424 87.4236 9.62213V7.2983H76.5923V7.4381C76.5696 7.43432 76.5488 7.43055 76.5261 7.42866C75.948 7.34364 75.3567 7.2983 74.7691 7.2983H65.9838L63.8206 10.9673C62.6851 9.82051 61.3343 8.90609 59.8039 8.24861C58.2528 7.58169 56.5883 7.24351 54.8577 7.24351C53.1271 7.24351 51.4627 7.58169 49.9115 8.24861C49.2408 8.53768 48.6042 8.87775 48.0034 9.26317V7.24351H33.2687L33.2876 7.21706H32.6377V2.91512H21.8101V7.21706H20.4668L15.838 13.3856V7.21706H5.84928L0 16.7731H5.06144V32.5185H9.41816V32.6281L9.4994 32.5185H15.5962L21.8082 23.6351V32.5998H32.6358V32.545H39.2124L39.2861 32.5412C40.4802 32.4864 41.6194 32.2087 42.6717 31.7175C43.7033 31.2376 44.6196 30.5858 45.3961 29.781C45.6285 29.541 45.842 29.2841 46.046 29.0196C47.1551 30.0832 48.453 30.941 49.9097 31.5682C51.4608 32.2352 53.1253 32.5733 54.8558 32.5733C55.4718 32.5733 56.0801 32.5299 56.679 32.443V32.5733H67.5066V30.31C68.2227 30.8087 68.9954 31.2395 69.8191 31.5947C70.5805 31.9215 71.3683 32.1709 72.1807 32.3391V38.2828H75.3888C77.0287 38.2828 78.6044 37.9635 80.0761 37.3325C81.5252 36.7109 82.8099 35.8418 83.8944 34.7441C84.96 33.6654 85.8177 32.4014 86.4431 30.9825C86.6169 30.5858 86.7661 30.1815 86.8946 29.7696C87.792 30.4913 88.7896 31.094 89.874 31.5645C91.4195 32.2333 93.0896 32.5733 94.8429 32.5733C96.3713 32.5733 97.845 32.3164 99.2261 31.8063C100.594 31.3018 101.841 30.5858 102.929 29.677C104.008 28.7777 104.934 27.7027 105.682 26.4785C106.194 25.6415 106.6 24.7479 106.902 23.8145C107.053 24.2774 107.233 24.7365 107.448 25.1881C108.108 26.5673 108.992 27.8161 110.076 28.8987C111.163 29.985 112.419 30.8711 113.81 31.5304C115.302 32.2389 116.857 32.5979 118.433 32.5979H125.429V32.5167H125.911V32.6262L125.992 32.5167H132.089L149.78 7.21706H136.959Z" fill="#D1D3D4"/>
<path d="M136.959 4.32839L132.33 10.497V4.32839H122.345L122.279 4.43608H117.235V0H107.161L102.889 7.24358C102.563 6.97341 102.226 6.7108 101.875 6.47274C100.875 5.79826 99.7739 5.26926 98.6007 4.89707C97.4066 4.51921 96.1446 4.32839 94.8466 4.32839C93.0953 4.32839 91.4232 4.66846 89.8778 5.33727C88.9993 5.71702 88.1812 6.18557 87.4236 6.73347V4.40963H76.5922V4.54944C76.5696 4.54566 76.5488 4.54188 76.5261 4.53999C75.948 4.45497 75.3566 4.40963 74.769 4.40963H65.9838L63.8206 8.07865C62.6851 6.93184 61.3342 6.01742 59.8039 5.35995C58.2528 4.69302 56.5883 4.35484 54.8577 4.35484C53.1271 4.35484 51.4626 4.69302 49.9115 5.35995C49.2408 5.64901 48.6041 5.98908 48.0033 6.3745V4.35484H33.2687L33.2876 4.32839H32.6377V0.0264502H21.8101V4.32839H20.4668L15.838 10.497V4.32839H5.84927L0 13.8845H5.06144V29.6299H9.41816V29.7395L9.4994 29.6299H15.5962L21.8082 20.7464V29.7111H32.6358V29.6564H39.2124L39.2861 29.6526C40.4801 29.5978 41.6194 29.3201 42.6717 28.8288C43.7033 28.349 44.6196 27.6971 45.3961 26.8923C45.6285 26.6524 45.842 26.3954 46.046 26.1309C47.155 27.1946 48.453 28.0523 49.9096 28.6796C51.4608 29.3465 53.1252 29.6847 54.8558 29.6847C55.4717 29.6847 56.0801 29.6412 56.679 29.5543V29.6847H67.5066V27.4213C68.2226 27.9201 68.9953 28.3508 69.8191 28.706C70.5805 29.0329 71.3683 29.2823 72.1807 29.4504V35.3942H75.3887C77.0287 35.3942 78.6043 35.0749 80.0761 34.4438C81.5252 33.8223 82.8099 32.9532 83.8944 31.8555C84.9599 30.7767 85.8177 29.5128 86.443 28.0939C86.6169 27.6971 86.7661 27.2928 86.8946 26.881C87.792 27.6027 88.7895 28.2054 89.874 28.6758C91.4195 29.3446 93.0896 29.6847 94.8429 29.6847C96.3713 29.6847 97.845 29.4277 99.226 28.9176C100.594 28.4132 101.841 27.6971 102.929 26.7884C104.008 25.8891 104.934 24.8141 105.682 23.5898C106.194 22.7528 106.6 21.8592 106.902 20.9259C107.053 21.3888 107.233 21.8479 107.448 22.2994C108.108 23.6786 108.992 24.9274 110.076 26.01C111.163 27.0963 112.419 27.9824 113.81 28.6418C115.302 29.3503 116.857 29.7093 118.433 29.7093H125.429V29.628H125.911V29.7376L125.992 29.628H132.089L149.778 4.3265H136.959V4.32839Z" fill="url(#paint0_radial)"/>
<path d="M8.26944 26.4221V10.6767H5.72644L7.64786 7.53857H12.6262V20.1194L22.067 7.53857H27.1266L13.9241 26.4221H8.26944Z" fill="white"/>
<path d="M25.0161 7.64595V3.23633H29.4257V7.64595H25.0161ZM25.0161 26.5031V8.99869H29.4257V26.5031H25.0161Z" fill="white"/>
<path d="M37.0153 12.4204C36.7545 12.683 36.6223 13.0023 36.6223 13.3801C36.6223 13.7769 36.7583 14.1151 37.0285 14.3947C37.2987 14.6743 37.6331 14.8141 38.0298 14.8141H39.1388C39.9134 14.85 40.6408 15.0257 41.3172 15.3412C41.9936 15.6568 42.5849 16.0762 43.0894 16.5995C43.5938 17.1229 43.9906 17.7312 44.2796 18.4265C44.5687 19.1217 44.7123 19.8567 44.7123 20.6313C44.7123 21.4248 44.5668 22.1654 44.2796 22.8493C43.9906 23.5351 43.5938 24.1397 43.0894 24.6612C42.5849 25.1845 41.9936 25.6039 41.3172 25.9194C40.6408 26.2349 39.9153 26.4107 39.1388 26.4465H39.0028H38.8668H32.2127V22.0369H38.9499C39.3278 22.0199 39.6489 21.8744 39.9097 21.6043C40.1704 21.3341 40.3026 21.0091 40.3026 20.6294C40.3026 20.2326 40.1628 19.8982 39.8832 19.6281C39.6036 19.3579 39.2654 19.2219 38.8687 19.2219H37.8673V19.1954C37.0738 19.1784 36.3332 19.0103 35.6493 18.6947C34.9635 18.3792 34.3684 17.9598 33.8639 17.4365C33.3595 16.9131 32.957 16.3048 32.6604 15.6095C32.3619 14.9161 32.2145 14.1718 32.2145 13.3783C32.2145 12.9097 32.2731 12.4487 32.3903 11.9991C32.5074 11.5475 32.6642 11.1243 32.8626 10.7276H30.9412L32.8342 7.56299H37.8654H37.8919H38.0279H44.7916V11.9726H37.975C37.5972 12.0104 37.276 12.1597 37.0153 12.4204Z" fill="white"/>
<path d="M64.2986 17.0604V26.4748H59.889V25.0144C59.1484 25.4829 58.3549 25.8438 57.5085 26.097C56.6602 26.3501 55.776 26.4748 54.8578 26.4748C53.5598 26.4748 52.3318 26.2273 51.1774 25.7304C50.0231 25.2354 49.018 24.5628 48.1602 23.7146C47.3025 22.8663 46.6261 21.8668 46.1311 20.7125C45.6342 19.5581 45.3867 18.3319 45.3867 17.0321C45.3867 15.7341 45.6342 14.508 46.1311 13.3517C46.6261 12.1974 47.3025 11.1923 48.1602 10.3345C49.0161 9.47867 50.0231 8.80231 51.1774 8.30542C52.3318 7.81042 53.558 7.56104 54.8578 7.56104C56.1576 7.56104 57.3819 7.80853 58.5382 8.30542C59.6925 8.80231 60.6939 9.47867 61.5403 10.3345C62.3886 11.1923 63.0593 12.1974 63.5561 13.3517C64.0511 14.5061 64.3005 15.7323 64.3005 17.0321V17.0604H64.2986ZM54.8578 22.0652C55.5436 22.0652 56.1916 21.9348 56.8057 21.6722C57.4178 21.4115 57.9563 21.0506 58.4154 20.5897C58.8745 20.1306 59.2353 19.5978 59.4979 18.9932C59.7587 18.3886 59.8909 17.7349 59.8909 17.0321C59.8909 16.3293 59.7605 15.6699 59.4979 15.0578C59.2353 14.4456 58.8763 13.9072 58.4154 13.4481C57.9563 12.989 57.4235 12.6281 56.8189 12.3655C56.2143 12.1048 55.5606 11.9726 54.8578 11.9726C54.155 11.9726 53.4994 12.1029 52.8967 12.3655C52.2921 12.6281 51.7612 12.9871 51.3002 13.4481C50.8392 13.9091 50.4803 14.4456 50.2177 15.0578C49.9551 15.6718 49.8247 16.3293 49.8247 17.0321C49.8247 17.7179 49.9551 18.3678 50.2177 18.98C50.4784 19.594 50.8392 20.1306 51.3002 20.5897C51.7612 21.0488 52.2921 21.4096 52.8967 21.6722C53.4994 21.9348 54.1531 22.0652 54.8578 22.0652Z" fill="white"/>
<path d="M79.8003 7.61957H84.21V23.3914C84.21 24.6006 83.9757 25.7361 83.5071 26.7997C83.0386 27.8634 82.4076 28.7967 81.6141 29.5997C80.8206 30.4026 79.8872 31.0337 78.8141 31.4928C77.741 31.9519 76.5999 32.1824 75.3926 32.1824V27.7727C76.2579 27.7727 77.0382 27.5479 77.7334 27.0964C78.4268 26.6448 78.9653 26.0591 79.3431 25.3374C78.6573 25.6983 77.9318 25.9817 77.1648 26.1895C76.3977 26.3973 75.6004 26.5012 74.771 26.5012C73.4731 26.5012 72.245 26.2537 71.0907 25.7569C69.9363 25.2619 68.935 24.5893 68.0867 23.741C67.2384 22.8927 66.5677 21.8932 66.0708 20.737C65.5739 19.5826 65.3264 18.3565 65.3264 17.0585C65.3264 15.8324 65.5437 14.6912 65.9763 13.637C66.409 12.5828 67.0041 11.6305 67.7617 10.7823H65.9499L67.8165 7.61768H74.7691C75.2018 7.61768 75.6306 7.64979 76.0539 7.71214C76.4771 7.77638 76.8795 7.8614 77.2573 7.96909V12.7037C76.8965 12.5053 76.5092 12.3428 76.0935 12.2162C75.6779 12.0897 75.2358 12.0273 74.7672 12.0273C74.0814 12.0273 73.4315 12.1577 72.8194 12.4203C72.2054 12.6829 71.6688 13.0419 71.2097 13.5028C70.7506 13.9638 70.3841 14.5004 70.1139 15.1125C69.8437 15.7266 69.7077 16.3746 69.7077 17.0604C69.7077 17.7632 69.8437 18.4226 70.1139 19.0347C70.3841 19.6487 70.7487 20.1853 71.2097 20.6444C71.6707 21.1035 72.2054 21.4644 72.8194 21.727C73.4315 21.9877 74.0814 22.1199 74.7672 22.1199C75.4531 22.1199 76.1011 21.9896 76.7151 21.727C77.3291 21.4662 77.8657 21.1054 78.3248 20.6444C78.7839 20.1853 79.1447 19.6487 79.4074 19.0347C79.6681 18.4226 79.8003 17.7632 79.8003 17.0604V7.61957V7.61957Z" fill="white"/>
<path d="M104.123 18.9008C103.908 19.9834 103.515 20.9885 102.946 21.918C102.377 22.8476 101.688 23.6486 100.877 24.3269C100.065 25.0033 99.1449 25.5304 98.1171 25.9101C97.0893 26.288 95.9973 26.4788 94.8429 26.4788C93.5261 26.4788 92.2943 26.2313 91.1494 25.7344C90.0044 25.2394 89.0031 24.5631 88.1473 23.7053C87.2895 22.8495 86.6132 21.8481 86.1182 20.7032C85.6213 19.5583 85.3738 18.3265 85.3738 17.0096C85.3738 15.6928 85.6213 14.4629 86.1182 13.3161C86.6132 12.1711 87.2914 11.1698 88.1473 10.3121C89.0031 9.45621 90.0044 8.77984 91.1494 8.28296C92.2943 7.78796 93.5261 7.53857 94.8429 7.53857C95.8178 7.53857 96.7455 7.67838 97.6297 7.958C98.5138 8.23761 99.33 8.63059 100.078 9.13503C100.826 9.63947 101.493 10.2403 102.081 10.9336C102.667 11.6289 103.141 12.3903 103.502 13.2197C103.592 13.4181 103.664 13.5976 103.719 13.76L103.286 14.4912L101.718 17.0077H95.8443L98.1719 13.2461C97.7203 12.8324 97.2121 12.5112 96.6434 12.2864C96.0748 12.0616 95.4759 11.9482 94.8448 11.9482C94.142 11.9482 93.4826 12.0786 92.8705 12.3412C92.2565 12.6038 91.7199 12.9628 91.2608 13.4237C90.8017 13.8828 90.439 14.4213 90.1783 15.0334C89.9156 15.6474 89.7853 16.3049 89.7853 17.0077C89.7853 17.7106 89.9156 18.3699 90.1783 18.9821C90.439 19.5961 90.7998 20.1326 91.2608 20.5917C91.7218 21.0508 92.2565 21.4117 92.8705 21.6743C93.4826 21.935 94.142 22.0673 94.8448 22.0673C95.9085 22.0673 96.8607 21.7688 97.6996 21.1736C98.5384 20.5785 99.1468 19.8209 99.5265 18.9008H104.123V18.9008Z" fill="white"/>
<path d="M113.564 12.0292V17.6839C113.564 18.3338 113.708 18.9289 113.997 19.4693C114.286 20.0096 114.647 20.4706 115.079 20.8485C115.512 21.2263 115.986 21.5248 116.5 21.7421C117.014 21.9575 117.505 22.0671 117.974 22.0671H121.762V26.5031H117.974C116.872 26.5031 115.792 26.25 114.728 25.7455C113.664 25.2411 112.716 24.5723 111.886 23.7429C111.057 22.9135 110.388 21.9707 109.884 20.9165C109.379 19.8604 109.126 18.7835 109.126 17.6839V6.37454H106.664L108.531 3.20996H111.724H113.564V7.64604H121.762V12.0292H113.564Z" fill="white"/>
<path d="M124.305 26.4221V10.6767H121.762L123.683 7.53857H128.661V20.1194L138.104 7.53857H143.164L129.961 26.4221H124.305V26.4221Z" fill="white"/>
<path d="M132.33 10.497V4.32839H122.345L122.279 4.43608H117.235V0H107.161L102.889 7.24358C102.563 6.97341 102.226 6.71079 101.875 6.47274C100.875 5.79826 99.7739 5.26926 98.6007 4.89707C97.4066 4.51921 96.1446 4.32839 94.8466 4.32839C93.0953 4.32839 91.4232 4.66846 89.8778 5.33727C88.9993 5.71702 88.1812 6.18557 87.4236 6.73347V4.40963H76.5922V4.54943C76.5695 4.54566 76.5488 4.54188 76.5261 4.53999C75.948 4.45497 75.3566 4.40963 74.769 4.40963H65.9838L63.8205 8.07865C62.6851 6.93184 61.3342 6.01742 59.8039 5.35994C58.2528 4.69302 56.5883 4.35484 54.8577 4.35484C53.1271 4.35484 51.4626 4.69302 49.9115 5.35994C49.2408 5.64901 48.6041 5.98908 48.0033 6.3745V4.35484H33.2687L33.2876 4.32839H32.6376V0.0264502H21.81V4.32839H20.4668L15.838 10.497V4.32839H5.84924L0.717896 12.7112C18.1297 15.8777 43.7411 17.8803 72.2978 17.8803C100.881 17.8803 126.511 15.8758 143.925 12.7037L149.78 4.32839H136.957L132.33 10.497Z" fill="url(#paint1_linear)"/>
</g>
<defs>
<radialGradient id="paint0_radial" cx="0" cy="0" r="1" gradientUnits="userSpaceOnUse" gradientTransform="translate(74.8904 17.6971) scale(80.5244 47.9523)">
<stop stop-color="#00AEEF"/>
<stop offset="1" stop-color="#00008B"/>
</radialGradient>
<linearGradient id="paint1_linear" x1="75.2493" y1="26.9728" x2="75.2493" y2="8.78742" gradientUnits="userSpaceOnUse">
<stop stop-color="white"/>
<stop offset="1" stop-color="white" stop-opacity="0"/>
</linearGradient>
<clipPath id="clip0">
<rect width="149.78" height="38.281" fill="white"/>
</clipPath>
</defs>
</svg>
